g all
s 1
f 1/1/1 2/2/2 3/3/3
f 5/5/5 3/3/3 2/2/2
f 9/9/9 10/10/10 11/11/11
f 13/13/13 14/14/14 11/11/11
f 18/18/18 19/19/19 20/20/20
f 24/24/24 6/6/6 2/2/2
f 26/26/26 24/24/24 23/23/23
f 7/7/7 26/26/26 25/25/25
f 28/28/28 11/11/11 14/14/14
f 30/30/30 28/28/28 27/27/27
f 15/15/15 30/30/30 29/29/29
f 19/19/19 18/18/18 32/32/32
f 31/31/31 32/32/32 34/34/34
f 33/33/33 34/34/34 22/22/22
f 36/36/36 14/14/14 13/13/13
f 19/19/19 36/36/36 35/35/35
f 37/37/37 38/38/38 5/5/5
f 18/18/18 17/17/17 38/38/38
f 41/41/41 37/37/37 6/6/6
f 32/32/32 18/18/18 37/37/37
f 42/42/42 27/27/27 14/14/14
f 31/31/31 42/42/42 36/36/36
f 43/43/43 41/41/41 24/24/24
f 34/34/34 32/32/32 41/41/41
f 44/44/44 29/29/29 27/27/27
f 33/33/33 44/44/44 42/42/42
f 39/39/39 43/43/43 26/26/26
f 22/22/22 34/34/34 43/43/43
f 40/40/40 16/16/16 29/29/29
f 21/21/21 40/40/40 44/44/44
f 1/1/1 45/45/45 2/2/2
f 9/9/9 46/46/46 10/10/10
f 39/39/39 53/53/53 85/85/85
f 47/47/47 50/50/50 49/49/49
f 51/51/51 52/52/52 48/48/48
f 55/55/55 58/58/58 57/57/57
f 59/59/59 56/56/56 57/57/57
f 66/66/66 65/65/65 64/64/64
f 48/48/48 52/52/52 70/70/70
f 69/69/69 70/70/70 72/72/72
f 71/71/71 72/72/72 53/53/53
f 60/60/60 57/57/57 74/74/74
f 73/73/73 74/74/74 76/76/76
f 75/75/75 76/76/76 61/61/61
f 78/78/78 64/64/64 65/65/65
f 80/80/80 78/78/78 77/77/77
f 67/67/67 68/68/68 80/80/80
f 59/59/59 60/60/60 82/82/82
f 81/81/81 82/82/82 65/65/65
f 83/83/83 52/52/52 51/51/51
f 64/64/64 83/83/83 84/84/84
f 87/87/87 70/70/70 52/52/52
f 78/78/78 87/87/87 83/83/83
f 60/60/60 73/73/73 88/88/88
f 82/82/82 88/88/88 77/77/77
f 89/89/89 72/72/72 70/70/70
f 80/80/80 89/89/89 87/87/87
f 73/73/73 75/75/75 90/90/90
f 88/88/88 90/90/90 79/79/79
f 85/85/85 53/53/53 72/72/72
f 68/68/68 85/85/85 89/89/89
f 75/75/75 62/62/62 86/86/86
f 90/90/90 86/86/86 67/67/67
f 47/47/47 48/48/48 91/91/91
f 55/55/55 56/56/56 92/92/92
f 4/4/4 1/1/1 3/3/3
f 6/6/6 5/5/5 2/2/2
f 12/12/12 9/9/9 11/11/11
f 10/10/10 13/13/13 11/11/11
f 17/17/17 18/18/18 20/20/20
f 67/67/67 86/86/86 21/21/21
f 25/25/25 26/26/26 23/23/23
f 67/67/67 21/21/21 22/22/22
f 23/23/23 24/24/24 2/2/2
f 8/8/8 7/7/7 25/25/25
f 27/27/27 28/28/28 14/14/14
f 29/29/29 30/30/30 27/27/27
f 16/16/16 15/15/15 29/29/29
f 31/31/31 19/19/19 32/32/32
f 33/33/33 31/31/31 34/34/34
f 21/21/21 33/33/33 22/22/22
f 35/35/35 36/36/36 13/13/13
f 20/20/20 19/19/19 35/35/35
f 6/6/6 37/37/37 5/5/5
f 37/37/37 18/18/18 38/38/38
f 41/41/41 32/32/32 37/37/37
f 24/24/24 41/41/41 6/6/6
f 36/36/36 42/42/42 14/14/14
f 19/19/19 31/31/31 36/36/36
f 26/26/26 43/43/43 24/24/24
f 43/43/43 34/34/34 41/41/41
f 42/42/42 44/44/44 27/27/27
f 31/31/31 33/33/33 42/42/42
f 7/7/7 39/39/39 26/26/26
f 39/39/39 22/22/22 43/43/43
f 44/44/44 40/40/40 29/29/29
f 33/33/33 21/21/21 44/44/44
f 39/39/39 7/7/7 53/53/53
f 62/62/62 16/16/16 40/40/40
f 22/22/22 85/85/85 68/68/68
f 62/62/62 40/40/40 86/86/86
f 86/86/86 40/40/40 21/21/21
f 15/15/15 16/16/16 62/62/62
f 48/48/48 47/47/47 49/49/49
f 49/49/49 51/51/51 48/48/48
f 68/68/68 67/67/67 22/22/22
f 56/56/56 55/55/55 57/57/57
f 60/60/60 59/59/59 57/57/57
f 63/63/63 66/66/66 64/64/64
f 69/69/69 48/48/48 70/70/70
f 71/71/71 69/69/69 72/72/72
f 54/54/54 71/71/71 53/53/53
f 73/73/73 60/60/60 74/74/74
f 75/75/75 73/73/73 76/76/76
f 62/62/62 75/75/75 61/61/61
f 77/77/77 78/78/78 65/65/65
f 79/79/79 80/80/80 77/77/77
f 79/79/79 67/67/67 80/80/80
f 81/81/81 59/59/59 82/82/82
f 66/66/66 81/81/81 65/65/65
f 84/84/84 83/83/83 51/51/51
f 63/63/63 64/64/64 84/84/84
f 83/83/83 87/87/87 52/52/52
f 64/64/64 78/78/78 83/83/83
f 82/82/82 60/60/60 88/88/88
f 65/65/65 82/82/82 77/77/77
f 87/87/87 89/89/89 70/70/70
f 78/78/78 80/80/80 87/87/87
f 88/88/88 73/73/73 90/90/90
f 77/77/77 88/88/88 79/79/79
f 89/89/89 85/85/85 72/72/72
f 80/80/80 68/68/68 89/89/89
f 90/90/90 75/75/75 86/86/86
f 79/79/79 90/90/90 67/67/67
f 53/53/53 7/7/7 8/8/8
f 53/53/53 8/8/8 54/54/54
f 22/22/22 39/39/39 85/85/85
f 15/15/15 62/62/62 61/61/61
vt 0.03776 0.017
vt 0.04923 0.01044
vt 0.03374 0.03012
vt 0.03527 0.02287
vt 0.03262 0.04746
vt 0.04923 0.04739
vt 0.43941 0.04739
vt 0.43941 0.01044
vt 0.03776 0.983
vt 0.03374 0.96988
vt 0.04923 0.98956
vt 0.04097 0.98675
vt 0.03262 0.95251
vt 0.04923 0.95255
vt 0.43941 0.98956
vt 0.43941 0.95255
vt 0.03262 0.40948
vt 0.04923 0.40945
vt 0.04923 0.59048
vt 0.03262 0.59049
vt 0.43941 0.59048
vt 0.43941 0.40945
vt 0.17502 0.01044
vt 0.17502 0.04739
vt 0.31926 0.01044
vt 0.31926 0.04739
vt 0.17502 0.95255
vt 0.17502 0.98956
vt 0.31926 0.95255
vt 0.31926 0.98956
vt 0.17502 0.59048
vt 0.17502 0.40945
vt 0.31926 0.59048
vt 0.31926 0.40945
vt 0.03262 0.7715
vt 0.04923 0.77152
vt 0.04923 0.22842
vt 0.03262 0.22847
vt 0.43941 0.22842
vt 0.43941 0.77152
vt 0.17502 0.22842
vt 0.17502 0.77152
vt 0.31926 0.22842
vt 0.31926 0.77152
vt 0.04097 0.01325
vt 0.03527 0.97713
vt 0.96178 0.017
vt 0.95031 0.01044
vt 0.9658 0.03012
vt 0.96427 0.02287
vt 0.96692 0.04746
vt 0.95031 0.04739
vt 0.56013 0.04739
vt 0.56013 0.01044
vt 0.96178 0.983
vt 0.9658 0.96988
vt 0.95031 0.98956
vt 0.95857 0.98675
vt 0.96692 0.95251
vt 0.95031 0.95255
vt 0.56013 0.98956
vt 0.56013 0.95255
vt 0.96692 0.40948
vt 0.95031 0.40945
vt 0.95031 0.59048
vt 0.96692 0.59049
vt 0.56013 0.59048
vt 0.56013 0.40945
vt 0.82452 0.01044
vt 0.82452 0.04739
vt 0.68028 0.01044
vt 0.68028 0.04739
vt 0.82452 0.95255
vt 0.82452 0.98956
vt 0.68028 0.95255
vt 0.68028 0.98956
vt 0.82452 0.59048
vt 0.82452 0.40945
vt 0.68028 0.59048
vt 0.68028 0.40945
vt 0.96692 0.7715
vt 0.95031 0.77152
vt 0.95031 0.22842
vt 0.96692 0.22847
vt 0.56013 0.22842
vt 0.56013 0.77152
vt 0.82452 0.22842
vt 0.82452 0.77152
vt 0.68028 0.22842
vt 0.68028 0.77152
vt 0.04097 0.01325
vt 0.03527 0.97713
vn -0.17728 0.00775 0.9841
vn -0.15812 0.00174 0.9874
vn -0.1814 0.00244 0.9834
vn -0.18638 0.00293 0.98245
vn -0.184 -0.01779 0.98276
vn -0.16156 -0.01758 0.98669
vn -0.02396 -0.01782 0.99954
vn -0.02396 0 0.99969
vn -0.17728 -0.00775 0.9841
vn -0.18146 -0.00238 0.98337
vn -0.15812 -0.00171 0.9874
vn -0.17405 -0.01511 0.98462
vn -0.18394 0.01779 0.98276
vn -0.16153 0.01758 0.98669
vn -0.02396 0 0.99969
vn -0.02396 0.01782 0.99954
vn -0.18433 -0.01254 0.98276
vn -0.16147 -0.01257 0.98679
vn -0.16147 0.01257 0.98679
vn -0.1843 0.01254 0.98276
vn -0.02396 0.01273 0.9996
vn -0.02396 -0.01273 0.9996
vn -0.11896 0 0.99289
vn -0.11896 -0.0177 0.99274
vn -0.07361 0 0.99728
vn -0.07361 -0.01779 0.9971
vn -0.11896 0.0177 0.99274
vn -0.11896 0 0.99289
vn -0.07361 0.01779 0.9971
vn -0.07361 0 0.99728
vn -0.11893 0.01263 0.9928
vn -0.11893 -0.01263 0.9928
vn -0.07358 0.0127 0.99719
vn -0.07358 -0.0127 0.99719
vn -0.18427 0.03006 0.98239
vn -0.16144 0.03018 0.98639
vn -0.16147 -0.03018 0.98639
vn -0.1843 -0.03006 0.98239
vn -0.02396 -0.03058 0.99924
vn -0.02396 0.03058 0.99924
vn -0.1189 -0.03037 0.99243
vn -0.1189 0.03037 0.99243
vn -0.07358 -0.03049 0.9968
vn -0.07358 0.03049 0.9968
vn -0.17405 0.01511 0.98462
vn -0.18638 -0.00293 0.98245
vn 0.17728 0.00775 0.9841
vn 0.15812 0.00174 0.9874
vn 0.1814 0.00244 0.9834
vn 0.18638 0.00293 0.98245
vn 0.184 -0.01779 0.98276
vn 0.16156 -0.01758 0.98669
vn 0.02396 -0.01782 0.99954
vn 0.02396 0 0.99969
vn 0.17728 -0.00775 0.9841
vn 0.18146 -0.00238 0.98337
vn 0.15812 -0.00171 0.9874
vn 0.17405 -0.01511 0.98462
vn 0.18394 0.01779 0.98276
vn 0.16153 0.01758 0.98669
vn 0.02396 0 0.99969
vn 0.02396 0.01782 0.99954
vn 0.18433 -0.01254 0.98276
vn 0.16147 -0.01257 0.98679
vn 0.16147 0.01257 0.98679
vn 0.1843 0.01254 0.98276
vn 0.02396 0.01273 0.9996
vn 0.02396 -0.01273 0.9996
vn 0.11896 0 0.99289
vn 0.11896 -0.0177 0.99274
vn 0.07361 0 0.99728
vn 0.07361 -0.01779 0.9971
vn 0.11896 0.0177 0.99274
vn 0.11896 0 0.99289
vn 0.07361 0.01779 0.9971
vn 0.07361 0 0.99728
vn 0.11893 0.01263 0.9928
vn 0.11893 -0.01263 0.9928
vn 0.07358 0.0127 0.99719
vn 0.07358 -0.0127 0.99719
vn 0.18427 0.03006 0.98239
vn 0.16144 0.03018 0.98639
vn 0.16147 -0.03018 0.98639
vn 0.1843 -0.03006 0.98239
vn 0.02396 -0.03058 0.99924
vn 0.02396 0.03058 0.99924
vn 0.1189 -0.03037 0.99243
vn 0.1189 0.03037 0.99243
vn 0.07358 -0.03049 0.9968
vn 0.07358 0.03049 0.9968
vn 0.17405 0.01511 0.98462
vn 0.18638 -0.00293 0.98245
v -0.94531 -0.69442 -0.09204
v -0.92179 -0.70385 -0.08774
v -0.95354 -0.67555 -0.09366
v -0.9504 -0.68597 -0.09303
v -0.95584 -0.65062 -0.09413
v -0.92179 -0.65072 -0.08774
v -0.12211 -0.65072 -0.01034
v -0.12211 -0.70385 -0.01034
v -0.94531 0.69469 -0.09204
v -0.95354 0.67581 -0.09366
v -0.92179 0.70412 -0.08774
v -0.93872 0.70008 -0.09079
v -0.95584 0.65084 -0.09412
v -0.92179 0.6509 -0.08774
v -0.12211 0.70412 -0.01034
v -0.12211 0.6509 -0.01034
v -0.95584 -0.13004 -0.07819
v -0.92179 -0.13007 -0.0718
v -0.92179 0.13025 -0.0718
v -0.95584 0.13026 -0.07819
v -0.12211 0.13025 0.00559
v -0.12211 -0.13007 0.00559
v -0.66398 -0.70385 -0.05165
v -0.66398 -0.65072 -0.05165
v -0.36834 -0.70385 -0.02216
v -0.36834 -0.65072 -0.02216
v -0.66398 0.6509 -0.05165
v -0.66398 0.70412 -0.05165
v -0.36834 0.6509 -0.02216
v -0.36834 0.70412 -0.02216
v -0.66398 0.13025 -0.03571
v -0.66398 -0.13007 -0.03571
v -0.36834 0.13025 -0.00623
v -0.36834 -0.13007 -0.00623
v -0.95584 0.39055 -0.08483
v -0.92179 0.39057 -0.07844
v -0.92179 -0.3904 -0.07844
v -0.95584 -0.39032 -0.08483
v -0.12211 -0.3904 -0.00105
v -0.12211 0.39057 -0.00105
v -0.66398 -0.3904 -0.04235
v -0.66398 0.39057 -0.04235
v -0.36834 -0.3904 -0.01287
v -0.36834 0.39057 -0.01287
v -0.93872 -0.69981 -0.09079
v -0.9504 0.68624 -0.09303
v 0.94531 -0.69442 -0.09204
v 0.92179 -0.70385 -0.08774
v 0.95354 -0.67555 -0.09366
v 0.9504 -0.68597 -0.09303
v 0.95584 -0.65062 -0.09413
v 0.92179 -0.65072 -0.08774
v 0.12211 -0.65072 -0.01034
v 0.12211 -0.70385 -0.01034
v 0.94531 0.69469 -0.09204
v 0.95354 0.67581 -0.09366
v 0.92179 0.70412 -0.08774
v 0.93872 0.70008 -0.09079
v 0.95584 0.65084 -0.09412
v 0.92179 0.6509 -0.08774
v 0.12211 0.70412 -0.01034
v 0.12211 0.6509 -0.01034
v 0.95584 -0.13004 -0.07819
v 0.92179 -0.13007 -0.0718
v 0.92179 0.13025 -0.0718
v 0.95584 0.13026 -0.07819
v 0.12211 0.13025 0.00559
v 0.12211 -0.13007 0.00559
v 0.66398 -0.70385 -0.05165
v 0.66398 -0.65072 -0.05165
v 0.36834 -0.70385 -0.02216
v 0.36834 -0.65072 -0.02216
v 0.66398 0.6509 -0.05165
v 0.66398 0.70412 -0.05165
v 0.36834 0.6509 -0.02216
v 0.36834 0.70412 -0.02216
v 0.66398 0.13025 -0.03571
v 0.66398 -0.13007 -0.03571
v 0.36834 0.13025 -0.00623
v 0.36834 -0.13007 -0.00623
v 0.95584 0.39055 -0.08483
v 0.92179 0.39057 -0.07844
v 0.92179 -0.3904 -0.07844
v 0.95584 -0.39032 -0.08483
v 0.12211 -0.3904 -0.00105
v 0.12211 0.39057 -0.00105
v 0.66398 -0.3904 -0.04235
v 0.66398 0.39057 -0.04235
v 0.36834 -0.3904 -0.01287
v 0.36834 0.39057 -0.01287
v 0.93872 -0.69981 -0.09079
v 0.9504 0.68624 -0.09303
